<svg width="974" height="400" viewBox="0 0 974 400" fill="none" xmlns="http://www.w3.org/2000/svg">
<g clip-path="url(#clip0_9715_3503)">
<path d="M774 0H200C89.5431 0 0 89.5431 0 200C0 310.457 89.5431 400 200 400H774C884.457 400 974 310.457 974 200C974 89.5431 884.457 0 774 0Z" fill="black"/>
<path d="M493.924 219.283L457.658 168.303H488.536L509.882 198.145L530.606 168.303H563.142L525.425 219.283L563.142 269.227H530.606L509.882 240.421L488.536 269.227H456L493.924 219.283Z" fill="#FFC257"/>
<path d="M437.566 131.115V155.569H353.428V187.277H397.155C405.859 187.277 412.836 187.898 418.086 189.142C423.336 190.385 429.139 193.632 435.494 198.882C441.849 203.994 445.027 213.319 445.027 226.859C445.027 244.958 440.122 256.149 430.313 260.431C420.504 264.714 412.56 267.27 406.481 268.099C400.54 268.928 393.217 269.343 384.513 269.343H324V244.889H384.513C395.152 244.889 402.474 243.714 406.481 241.366C410.625 239.017 412.698 234.734 412.698 228.517C412.698 224.787 411.8 221.471 410.004 218.569C408.208 215.668 406.066 213.872 403.579 213.181C401.092 212.491 399.089 212.076 397.569 211.938C396.05 211.8 391.698 211.731 384.513 211.731H324V131.115H437.566Z" fill="#FFC257"/>
<path d="M299.076 242.289V269.23H274V242.289H299.076Z" fill="#FFC257"/>
<path d="M160.428 244.773H250.576V269.227H131V232.546C131 216.658 133.832 205.882 139.497 200.217C145.299 194.553 150.411 191.099 154.832 189.855C159.392 188.612 166.299 187.99 175.556 187.99H198.145C205.744 187.99 211.546 186.747 215.553 184.26C219.698 181.773 221.77 177.905 221.77 172.655C221.77 161.188 213.895 155.454 198.145 155.454H133.28V131H204.362C222.323 131 235.102 134.385 242.701 141.155C250.3 147.924 254.099 158.148 254.099 171.826C254.099 180.115 252.648 187.3 249.747 193.379C246.846 199.457 242.287 204.155 236.069 207.471C229.99 210.786 220.112 212.444 206.434 212.444H186.954C176.73 212.444 169.753 213.826 166.023 216.589C162.293 219.352 160.428 224.671 160.428 232.546V244.773Z" fill="#FFC257"/>
<rect x="613" y="69" width="263" height="263" rx="131.5" fill="#FFE600"/>
<path fill-rule="evenodd" clip-rule="evenodd" d="M653.111 179.377L746.302 137.383L771.125 148.568L705.463 178.223L715.242 182.825L780.585 152.831L839.494 179.377L746.302 221.37L721.346 210.124L788.886 179.379L780.257 175.352L712.002 205.914L653.111 179.377Z" fill="#0E0F12"/>
<path d="M743.015 263.622L649.824 220.478L674.56 208.973L743.015 240.612L811.471 208.973L835.632 221.053L743.015 263.622Z" fill="#0E0F12"/>
</g>
<defs>
<clipPath id="clip0_9715_3503">
<rect width="974" height="400" fill="white"/>
</clipPath>
</defs>
</svg>
