<svg width="800" height="400" viewBox="0 0 800 400" fill="none" xmlns="http://www.w3.org/2000/svg">
<g clip-path="url(#clip0_9715_3497)">
<path d="M600 0H200C89.5431 0 0 89.5431 0 200C0 310.457 89.5431 400 200 400H600C710.457 400 800 310.457 800 200C800 89.5431 710.457 0 600 0Z" fill="black"/>
<path d="M294.542 219.354L258.246 168.332H289.15L310.512 198.199L331.253 168.332H363.815L326.068 219.354L363.815 269.339H331.253L310.512 240.509L289.15 269.339H256.587L294.542 219.354Z" fill="#FFF6A6"/>
<path d="M150.452 244.866H240.673V269.34H121V232.629C121 216.728 123.835 205.943 129.504 200.274C135.311 194.605 140.427 191.148 144.852 189.903C149.415 188.659 156.328 188.037 165.592 188.037H188.199C195.804 188.037 201.612 186.792 205.621 184.303C209.769 181.815 211.844 177.943 211.844 172.689C211.844 161.212 203.962 155.474 188.199 155.474H123.281V131H194.421C212.397 131 225.187 134.388 232.791 141.163C240.396 147.938 244.199 158.17 244.199 171.859C244.199 180.155 242.747 187.345 239.843 193.429C236.94 199.513 232.377 204.214 226.155 207.533C220.071 210.851 210.184 212.511 196.496 212.511H176.999C166.767 212.511 159.785 213.893 156.052 216.659C152.318 219.424 150.452 224.748 150.452 232.629V244.866Z" fill="#FFF6A6"/>
<rect x="425" y="68" width="263" height="263" rx="131.5" fill="#FFE600"/>
<path fill-rule="evenodd" clip-rule="evenodd" d="M465.111 178.377L558.302 136.383L583.125 147.568L517.463 177.223L527.242 181.825L592.585 151.831L651.494 178.377L558.302 220.37L533.346 209.124L600.886 178.379L592.257 174.352L524.002 204.914L465.111 178.377Z" fill="#0E0F12"/>
<path d="M555.015 262.622L461.824 219.478L486.56 207.973L555.015 239.612L623.471 207.973L647.632 220.053L555.015 262.622Z" fill="#0E0F12"/>
</g>
<defs>
<clipPath id="clip0_9715_3497">
<rect width="800" height="400" fill="white"/>
</clipPath>
</defs>
</svg>
