<svg width="1386" height="568" viewBox="0 0 1386 568" fill="none" xmlns="http://www.w3.org/2000/svg">
<rect width="1386" height="568" rx="284" fill="#0F0F0F"/>
<rect x="854" y="84" width="400" height="400" rx="200" fill="#EEAD21"/>
<path fill-rule="evenodd" clip-rule="evenodd" d="M1167.9 352.172V293.192C1167.88 287.477 1163.28 282.848 1157.61 282.848C1154.78 282.848 1152.21 283.722 1150.35 285.526C1118.02 321.454 1044.26 347.619 956.203 351.634C943.277 352.224 933.579 363.843 942.66 373.139C961 391.913 1002.25 405 1050.2 405C1115.2 405 1167.9 381.834 1167.9 352.172Z" fill="#0F0F0F"/>
<path fill-rule="evenodd" clip-rule="evenodd" d="M1137.92 262.412V219.012C1137.91 214.806 1134.51 211.4 1130.32 211.4C1128.22 211.4 1126.33 212.044 1124.95 213.37C1101.06 239.808 1046.54 259.062 981.451 262.017C971.897 262.451 964.728 271.001 971.44 277.841C984.997 291.656 1015.49 301.286 1050.93 301.286C1098.97 301.286 1137.92 284.239 1137.92 262.412Z" fill="#0F0F0F"/>
<path fill-rule="evenodd" clip-rule="evenodd" d="M1108.21 195.7V167.879C1108.21 165.183 1106 163 1103.28 163C1101.92 163 1100.69 163.413 1099.8 164.263C1084.3 181.21 1048.94 193.552 1006.72 195.447C1000.52 195.725 995.872 201.206 1000.23 205.59C1009.02 214.446 1028.8 220.619 1051.79 220.619C1082.95 220.619 1108.21 209.692 1108.21 195.7Z" fill="#0F0F0F"/>
<path d="M281.414 393H239.373V224.982H218.426V182.941H281.414V393ZM372.961 378.059C372.961 381.574 372.326 384.895 371.057 388.02C369.787 391.047 368.029 393.684 365.783 395.93C363.537 398.176 360.9 399.934 357.873 401.203C354.846 402.57 351.574 403.254 348.059 403.254C344.641 403.254 341.369 402.57 338.244 401.203C335.217 399.934 332.531 398.176 330.188 395.93C327.941 393.684 326.135 391.047 324.768 388.02C323.498 384.895 322.863 381.574 322.863 378.059C322.863 374.641 323.498 371.418 324.768 368.391C326.135 365.363 327.941 362.727 330.188 360.48C332.531 358.234 335.217 356.477 338.244 355.207C341.369 353.84 344.641 353.156 348.059 353.156C351.574 353.156 354.846 353.84 357.873 355.207C360.9 356.477 363.537 358.234 365.783 360.48C368.029 362.727 369.787 365.363 371.057 368.391C372.326 371.418 372.961 374.641 372.961 378.059ZM558.844 326.936C558.844 337.189 557.037 346.418 553.424 354.621C549.811 362.824 544.977 369.758 538.922 375.422C532.867 381.086 525.836 385.432 517.828 388.459C509.918 391.486 501.617 393 492.926 393H408.258V350.959H492.926C495.758 350.959 498.59 350.52 501.422 349.641C504.352 348.762 506.939 347.346 509.186 345.393C511.529 343.439 513.385 340.949 514.752 337.922C516.217 334.895 516.949 331.232 516.949 326.936C516.949 323.029 516.217 319.611 514.752 316.682C513.385 313.654 511.529 311.164 509.186 309.211C506.939 307.16 504.352 305.646 501.422 304.67C498.59 303.596 495.758 303.059 492.926 303.059H408.258L420.562 182.941H550.201V224.982H458.355L454.547 261.018H492.926C501.617 261.018 509.918 262.531 517.828 265.559C525.836 268.586 532.867 272.98 538.922 278.742C544.977 284.406 549.811 291.34 553.424 299.543C557.037 307.648 558.844 316.779 558.844 326.936ZM735.059 393H686.133L654.932 344.953L623.438 393H574.512L631.787 312.58L574.512 235.236H623.438L654.932 280.207L686.133 235.236H735.059L677.637 312.58L735.059 393Z" fill="#EEAD21"/>
</svg>
