<svg width="1152" height="568" viewBox="0 0 1152 568" fill="none" xmlns="http://www.w3.org/2000/svg">
<rect width="1152" height="568" rx="284" fill="#0F0F0F"/>
<rect x="594" y="84" width="400" height="400" rx="200" fill="#EEAD21"/>
<path fill-rule="evenodd" clip-rule="evenodd" d="M907.895 352.172V293.192C907.881 287.477 903.282 282.848 897.612 282.848C894.776 282.848 892.208 283.722 890.348 285.526C858.024 321.454 784.263 347.619 696.203 351.634C683.277 352.224 673.579 363.843 682.66 373.139C701 391.913 742.254 405 790.205 405C855.204 405 907.895 381.834 907.895 352.172Z" fill="#0F0F0F"/>
<path fill-rule="evenodd" clip-rule="evenodd" d="M877.921 262.412V219.012C877.911 214.806 874.512 211.4 870.32 211.4C868.224 211.4 866.326 212.044 864.951 213.37C841.06 239.808 786.539 259.062 721.451 262.017C711.897 262.451 704.728 271.001 711.44 277.841C724.997 291.656 755.489 301.286 790.932 301.286C838.975 301.286 877.921 284.239 877.921 262.412Z" fill="#0F0F0F"/>
<path fill-rule="evenodd" clip-rule="evenodd" d="M848.213 195.7V167.879C848.206 165.183 846.001 163 843.283 163C841.923 163 840.692 163.413 839.8 164.263C824.303 181.21 788.938 193.552 746.719 195.447C740.522 195.725 735.872 201.206 740.226 205.59C749.019 214.446 768.798 220.619 791.787 220.619C822.951 220.619 848.213 209.692 848.213 195.7Z" fill="#0F0F0F"/>
<path d="M280.414 393H238.373V224.982H217.426V182.941H280.414V393ZM467.176 393H418.25L387.049 344.953L355.555 393H306.629L363.904 312.58L306.629 235.236H355.555L387.049 280.207L418.25 235.236H467.176L409.754 312.58L467.176 393Z" fill="#EEAD21"/>
</svg>
