<svg width="1152" height="568" viewBox="0 0 1152 568" fill="none" xmlns="http://www.w3.org/2000/svg">
<rect width="1152" height="568" rx="284" fill="#0F0F0F"/>
<rect x="612" y="84" width="400" height="400" rx="200" fill="#EEAD21"/>
<path fill-rule="evenodd" clip-rule="evenodd" d="M925.895 352.172V293.192C925.881 287.477 921.282 282.848 915.612 282.848C912.776 282.848 910.208 283.722 908.348 285.526C876.024 321.454 802.263 347.619 714.203 351.634C701.277 352.224 691.579 363.843 700.66 373.139C719 391.913 760.254 405 808.205 405C873.204 405 925.895 381.834 925.895 352.172Z" fill="#0F0F0F"/>
<path fill-rule="evenodd" clip-rule="evenodd" d="M895.921 262.412V219.012C895.911 214.806 892.512 211.4 888.32 211.4C886.224 211.4 884.326 212.044 882.951 213.37C859.06 239.808 804.539 259.062 739.451 262.017C729.897 262.451 722.728 271.001 729.44 277.841C742.997 291.656 773.489 301.286 808.932 301.286C856.975 301.286 895.921 284.239 895.921 262.412Z" fill="#0F0F0F"/>
<path fill-rule="evenodd" clip-rule="evenodd" d="M866.213 195.7V167.879C866.206 165.183 864.001 163 861.283 163C859.923 163 858.692 163.413 857.8 164.263C842.303 181.21 806.938 193.552 764.719 195.447C758.522 195.725 753.872 201.206 758.226 205.59C767.019 214.446 786.798 220.619 809.787 220.619C840.951 220.619 866.213 209.692 866.213 195.7Z" fill="#0F0F0F"/>
<path d="M365.961 245.93C365.961 254.621 364.301 262.824 360.98 270.539C357.66 278.156 353.119 284.846 347.357 290.607C341.693 296.271 335.053 300.764 327.436 304.084C319.818 307.404 311.664 309.064 302.973 309.064H281.879C278.949 309.064 276.215 309.602 273.676 310.676C271.137 311.75 268.891 313.264 266.938 315.217C265.082 317.072 263.617 319.27 262.543 321.809C261.469 324.348 260.932 327.082 260.932 330.012V350.959H360.248V393H218.891V330.012C218.891 321.32 220.551 313.166 223.871 305.549C227.191 297.834 231.684 291.145 237.348 285.48C243.109 279.719 249.799 275.227 257.416 272.004C265.033 268.684 273.188 267.023 281.879 267.023H302.973C305.902 267.023 308.637 266.486 311.176 265.412C313.715 264.338 315.912 262.873 317.768 261.018C319.721 259.064 321.234 256.818 322.309 254.279C323.383 251.643 323.92 248.859 323.92 245.93C323.92 243 323.383 240.266 322.309 237.727C321.234 235.188 319.721 232.99 317.768 231.135C315.912 229.182 313.715 227.668 311.176 226.594C308.637 225.52 305.902 224.982 302.973 224.982H227.973V182.941H302.973C311.664 182.941 319.818 184.602 327.436 187.922C335.053 191.242 341.693 195.783 347.357 201.545C353.119 207.209 357.66 213.85 360.98 221.467C364.301 229.084 365.961 237.238 365.961 245.93ZM543.055 393H494.129L462.928 344.953L431.434 393H382.508L439.783 312.58L382.508 235.236H431.434L462.928 280.207L494.129 235.236H543.055L485.633 312.58L543.055 393Z" fill="#EEAD21"/>
</svg>
