<svg width="1097" height="400" viewBox="0 0 1097 400" fill="none" xmlns="http://www.w3.org/2000/svg">
<rect width="1097" height="400" rx="200" fill="black"/>
<path d="M138.721 280L145.103 248.775H172.453L190.459 163.76H164.248L170.63 134.13H197.069L199.804 120.455H233.992L206.642 248.775H233.992L227.61 280H138.721ZM242.676 280L249.97 246.495H279.6L272.306 280H242.676ZM290.912 280L296.838 251.054L372.28 188.375C374.256 186.704 375.851 185.184 377.067 183.817C378.282 182.449 379.194 181.082 379.802 179.714C380.562 178.195 381.169 176.523 381.625 174.7L383.676 164.671C384.588 160.417 384.132 157.226 382.309 155.099C380.486 152.819 377.523 151.68 373.42 151.68H329.659L322.138 142.335L326.924 120.455H390.742C397.276 120.455 402.974 122.126 407.836 125.469C412.851 128.812 416.421 133.294 418.549 138.916C420.676 144.386 421.056 150.312 419.688 156.694L414.902 179.031C413.99 183.437 412.775 187.16 411.255 190.199C409.888 193.238 407.912 196.201 405.329 199.088C402.746 201.975 399.251 205.242 394.845 208.888L347.437 247.407L347.209 248.775H404.417L398.036 280H290.912ZM419.48 280L426.09 248.775H484.21C487.553 248.775 490.212 247.939 492.187 246.268C494.162 244.444 495.53 241.937 496.29 238.746L499.48 223.247C500.392 218.993 499.936 215.726 498.113 213.447C496.29 211.168 493.327 210.028 489.224 210.028H436.574L455.492 120.455H550.991L546.432 141.651L534.58 151.68H483.526L477.6 179.714H506.546C512.928 179.714 518.55 181.386 523.412 184.729C528.427 187.919 531.997 192.326 534.125 197.948C536.252 203.57 536.632 209.572 535.264 215.954L528.427 248.091C526.907 255.081 524.4 260.931 520.905 265.641C517.562 270.351 513.232 273.922 507.914 276.353C502.747 278.784 496.669 280 489.68 280H419.48ZM537.472 280L540.891 264.045L577.814 221.196L561.176 179.714L564.595 163.76H593.313L603.798 202.962H605.393L631.376 163.76H663.969L660.55 179.714L626.59 220.512L645.051 264.045L641.633 280H612.687L599.923 240.797H598.327L570.065 280H537.472Z" fill="#A0ECFD"/>
<path fill-rule="evenodd" clip-rule="evenodd" d="M890.737 243.736C890.737 292.264 851.396 331.605 802.868 331.605C754.34 331.605 715 292.264 715 243.736H758.038C758.038 268 778.604 287.67 802.868 287.67C827.132 287.67 847.699 268 847.699 243.736H890.737Z" fill="white"/>
<path d="M913.786 220.69H957V177.477H913.786V220.69Z" fill="white"/>
<path d="M890.733 177.476H847.52V220.69H890.733V177.476Z" fill="white"/>
<path d="M781.267 220.69H824.48V177.477H781.267V220.69Z" fill="white"/>
<path d="M758.214 177.476H715V220.69H758.214V177.476Z" fill="white"/>
<path fill-rule="evenodd" clip-rule="evenodd" d="M781.264 155.868C781.264 107.34 820.604 68 869.132 68C917.66 68 957 107.34 957 155.868H913.963C913.963 131.604 893.396 111.934 869.132 111.934C844.868 111.934 824.301 131.604 824.301 155.868H781.264Z" fill="white"/>
</svg>
