<svg width="974" height="400" viewBox="0 0 974 400" fill="none" xmlns="http://www.w3.org/2000/svg">
<rect width="974" height="400" rx="200" fill="black"/>
<path d="M141.721 280L148.103 248.775H175.453L193.459 163.76H167.248L173.63 134.13H200.069L202.804 120.455H236.992L209.642 248.775H236.992L230.61 280H141.721ZM245.676 280L252.97 246.495H282.6L275.306 280H245.676ZM299.838 280L306.448 248.775H364.568C367.911 248.775 370.57 247.939 372.545 246.268C374.521 244.444 375.888 241.937 376.648 238.746L379.839 223.247C380.75 218.993 380.295 215.726 378.471 213.447C376.648 211.168 373.685 210.028 369.582 210.028H316.932L335.85 120.455H431.349L426.791 141.651L414.939 151.68H363.884L357.958 179.714H386.904C393.286 179.714 398.908 181.386 403.771 184.729C408.785 187.919 412.356 192.326 414.483 197.948C416.61 203.57 416.99 209.572 415.623 215.954L408.785 248.091C407.265 255.081 404.758 260.931 401.263 265.641C397.921 270.351 393.59 273.922 388.272 276.353C383.106 278.784 377.028 280 370.038 280H299.838ZM417.831 280L421.249 264.045L458.173 221.196L441.534 179.714L444.953 163.76H473.671L484.156 202.962H485.751L511.734 163.76H544.327L540.908 179.714L506.948 220.512L525.41 264.045L521.991 280H493.045L480.281 240.797H478.686L450.423 280H417.831Z" fill="#4EDFFF"/>
<path fill-rule="evenodd" clip-rule="evenodd" d="M770.737 243.736C770.737 292.264 731.396 331.605 682.868 331.605C634.34 331.605 595 292.264 595 243.736H638.038C638.038 268 658.604 287.67 682.868 287.67C707.132 287.67 727.699 268 727.699 243.736H770.737Z" fill="white"/>
<path d="M793.786 220.69H837V177.477H793.786V220.69Z" fill="white"/>
<path d="M770.733 177.476H727.52V220.69H770.733V177.476Z" fill="white"/>
<path d="M661.267 220.69H704.48V177.477H661.267V220.69Z" fill="white"/>
<path d="M638.214 177.476H595V220.69H638.214V177.476Z" fill="white"/>
<path fill-rule="evenodd" clip-rule="evenodd" d="M661.264 155.868C661.264 107.34 700.604 68 749.132 68C797.66 68 837 107.34 837 155.868H793.963C793.963 131.604 773.396 111.934 749.132 111.934C724.868 111.934 704.301 131.604 704.301 155.868H661.264Z" fill="white"/>
</svg>
