<svg width="800" height="400" viewBox="0 0 800 400" fill="none" xmlns="http://www.w3.org/2000/svg">
<rect width="800" height="400" rx="200" fill="black"/>
<path d="M137.721 280L144.103 248.775H171.453L189.459 163.76H163.248L169.63 134.13H196.069L198.804 120.455H232.992L205.642 248.775H232.992L226.61 280H137.721ZM236.434 280L239.853 264.045L276.776 221.196L260.138 179.714L263.557 163.76H292.275L302.76 202.962H304.355L330.338 163.76H362.931L359.512 179.714L325.552 220.512L344.013 264.045L340.595 280H311.648L298.885 240.797H297.289L269.027 280H236.434Z" fill="white"/>
<path fill-rule="evenodd" clip-rule="evenodd" d="M592.737 243.736C592.737 292.264 553.396 331.605 504.868 331.605C456.34 331.605 417 292.264 417 243.736H460.038C460.038 268 480.604 287.67 504.868 287.67C529.132 287.67 549.699 268 549.699 243.736H592.737Z" fill="white"/>
<path d="M615.786 220.69H659V177.477H615.786V220.69Z" fill="white"/>
<path d="M592.733 177.476H549.52V220.69H592.733V177.476Z" fill="white"/>
<path d="M483.267 220.69H526.48V177.477H483.267V220.69Z" fill="white"/>
<path d="M460.214 177.476H417V220.69H460.214V177.476Z" fill="white"/>
<path fill-rule="evenodd" clip-rule="evenodd" d="M483.264 155.868C483.264 107.34 522.604 68 571.132 68C619.66 68 659 107.34 659 155.868H615.963C615.963 131.604 595.396 111.934 571.132 111.934C546.868 111.934 526.301 131.604 526.301 155.868H483.264Z" fill="white"/>
</svg>
