<svg width="974" height="400" viewBox="0 0 974 400" fill="none" xmlns="http://www.w3.org/2000/svg">
<rect width="974" height="400" rx="200" fill="black"/>
<path d="M139.442 280L145.368 251.054L220.81 188.375C222.785 186.704 224.381 185.184 225.596 183.817C226.812 182.449 227.723 181.082 228.331 179.714C229.091 178.195 229.699 176.523 230.155 174.7L232.206 164.671C233.118 160.417 232.662 157.226 230.838 155.099C229.015 152.819 226.052 151.68 221.949 151.68H178.188L170.667 142.335L175.453 120.455H239.271C245.805 120.455 251.503 122.126 256.366 125.469C261.38 128.812 264.951 133.294 267.078 138.916C269.205 144.386 269.585 150.312 268.218 156.694L263.431 179.031C262.519 183.437 261.304 187.16 259.784 190.199C258.417 193.238 256.442 196.201 253.858 199.088C251.275 201.975 247.781 205.242 243.374 208.888L195.966 247.407L195.738 248.775H252.947L246.565 280H139.442ZM264.818 280L272.112 246.495H301.742L294.448 280H264.818ZM318.98 280L325.59 248.775H383.71C387.053 248.775 389.712 247.939 391.687 246.268C393.663 244.444 395.03 241.937 395.79 238.746L398.981 223.247C399.892 218.993 399.437 215.726 397.613 213.447C395.79 211.168 392.827 210.028 388.724 210.028H336.074L354.992 120.455H450.491L445.933 141.651L434.081 151.68H383.026L377.1 179.714H406.046C412.428 179.714 418.05 181.386 422.913 184.729C427.927 187.919 431.498 192.326 433.625 197.948C435.752 203.57 436.132 209.572 434.764 215.954L427.927 248.091C426.407 255.081 423.9 260.931 420.405 265.641C417.063 270.351 412.732 273.922 407.414 276.353C402.248 278.784 396.17 280 389.18 280H318.98ZM436.972 280L440.391 264.045L477.315 221.196L460.676 179.714L464.095 163.76H492.813L503.298 202.962H504.893L530.876 163.76H563.469L560.05 179.714L526.09 220.512L544.552 264.045L541.133 280H512.187L499.423 240.797H497.828L469.565 280H436.972Z" fill="#FFC560"/>
<path fill-rule="evenodd" clip-rule="evenodd" d="M770.737 243.736C770.737 292.264 731.396 331.605 682.868 331.605C634.34 331.605 595 292.264 595 243.736H638.038C638.038 268 658.604 287.67 682.868 287.67C707.132 287.67 727.699 268 727.699 243.736H770.737Z" fill="white"/>
<path d="M793.786 220.69H837V177.477H793.786V220.69Z" fill="white"/>
<path d="M770.733 177.476H727.52V220.69H770.733V177.476Z" fill="white"/>
<path d="M661.267 220.69H704.48V177.477H661.267V220.69Z" fill="white"/>
<path d="M638.214 177.476H595V220.69H638.214V177.476Z" fill="white"/>
<path fill-rule="evenodd" clip-rule="evenodd" d="M661.264 155.868C661.264 107.34 700.604 68 749.132 68C797.66 68 837 107.34 837 155.868H793.963C793.963 131.604 773.396 111.934 749.132 111.934C724.868 111.934 704.301 131.604 704.301 155.868H661.264Z" fill="white"/>
</svg>
