<svg width="800" height="400" viewBox="0 0 800 400" fill="none" xmlns="http://www.w3.org/2000/svg">
<rect width="800" height="400" rx="200" fill="black"/>
<path d="M128.442 280L134.368 251.054L209.81 188.375C211.785 186.704 213.381 185.184 214.596 183.817C215.812 182.449 216.723 181.082 217.331 179.714C218.091 178.195 218.699 176.523 219.155 174.7L221.206 164.671C222.118 160.417 221.662 157.226 219.838 155.099C218.015 152.819 215.052 151.68 210.949 151.68H167.188L159.667 142.335L164.453 120.455H228.271C234.805 120.455 240.503 122.126 245.366 125.469C250.38 128.812 253.951 133.294 256.078 138.916C258.205 144.386 258.585 150.312 257.218 156.694L252.431 179.031C251.519 183.437 250.304 187.16 248.784 190.199C247.417 193.238 245.442 196.201 242.858 199.088C240.275 201.975 236.781 205.242 232.374 208.888L184.966 247.407L184.738 248.775H241.947L235.565 280H128.442ZM248.576 280L251.995 264.045L288.918 221.196L272.28 179.714L275.699 163.76H304.417L314.901 202.962H316.497L342.48 163.76H375.073L371.654 179.714L337.694 220.512L356.155 264.045L352.736 280H323.79L311.027 240.797H309.431L281.169 280H248.576Z" fill="#FFBC97"/>
<path fill-rule="evenodd" clip-rule="evenodd" d="M600.737 243.736C600.737 292.264 561.396 331.605 512.868 331.605C464.34 331.605 425 292.264 425 243.736H468.038C468.038 268 488.604 287.67 512.868 287.67C537.132 287.67 557.699 268 557.699 243.736H600.737Z" fill="white"/>
<path d="M623.786 220.69H667V177.477H623.786V220.69Z" fill="white"/>
<path d="M600.733 177.476H557.52V220.69H600.733V177.476Z" fill="white"/>
<path d="M491.267 220.69H534.48V177.477H491.267V220.69Z" fill="white"/>
<path d="M468.214 177.476H425V220.69H468.214V177.476Z" fill="white"/>
<path fill-rule="evenodd" clip-rule="evenodd" d="M491.264 155.868C491.264 107.34 530.604 68 579.132 68C627.66 68 667 107.34 667 155.868H623.963C623.963 131.604 603.396 111.934 579.132 111.934C554.868 111.934 534.301 131.604 534.301 155.868H491.264Z" fill="white"/>
</svg>
