<svg width="1097" height="400" viewBox="0 0 1097 400" fill="none" xmlns="http://www.w3.org/2000/svg">
<rect width="1097" height="400" rx="200" fill="black"/>
<path d="M136.442 280L143.051 248.775H202.767C205.958 248.775 208.541 247.939 210.516 246.268C212.644 244.444 214.011 241.937 214.619 238.746L216.898 227.806C217.81 223.551 217.354 220.284 215.531 218.005C213.707 215.726 210.668 214.586 206.414 214.586H175.644L181.342 188.147L219.177 153.047L219.405 151.68H172.909L165.616 142.335L170.174 120.455H268.636L262.71 148.489L223.508 184.956L223.052 186.552H226.015C232.093 186.552 237.411 188.147 241.969 191.338C246.68 194.529 250.023 198.936 251.998 204.558C254.125 210.028 254.505 215.878 253.138 222.108L247.44 248.091C245.92 255.081 243.413 260.931 239.918 265.641C236.575 270.351 232.321 273.922 227.155 276.353C221.988 278.784 215.91 280 208.921 280H136.442ZM262.041 280L269.334 246.495H298.964L291.671 280H262.041ZM317.789 280L321.208 263.362L388.217 153.959L388.445 152.364H326.222L333.06 120.455H435.625L429.243 150.084L350.154 280H317.789ZM421.928 280L428.538 248.775H486.658C490.001 248.775 492.66 247.939 494.635 246.268C496.611 244.444 497.978 241.937 498.738 238.746L501.929 223.247C502.841 218.993 502.385 215.726 500.561 213.447C498.738 211.168 495.775 210.028 491.672 210.028H439.022L457.94 120.455H553.439L548.881 141.651L537.029 151.68H485.974L480.048 179.714H508.994C515.376 179.714 520.998 181.386 525.861 184.729C530.875 187.919 534.446 192.326 536.573 197.948C538.7 203.57 539.08 209.572 537.713 215.954L530.875 248.091C529.355 255.081 526.848 260.931 523.354 265.641C520.011 270.351 515.68 273.922 510.362 276.353C505.196 278.784 499.118 280 492.128 280H421.928ZM539.921 280L543.339 264.045L580.263 221.196L563.625 179.714L567.043 163.76H595.762L606.246 202.962H607.841L633.825 163.76H666.417L662.999 179.714L629.038 220.512L647.5 264.045L644.081 280H615.135L602.371 240.797H600.776L572.513 280H539.921Z" fill="url(#paint0_linear_402_17244)"/>
<path fill-rule="evenodd" clip-rule="evenodd" d="M890.737 243.736C890.737 292.264 851.396 331.605 802.868 331.605C754.34 331.605 715 292.264 715 243.736H758.038C758.038 268 778.604 287.67 802.868 287.67C827.132 287.67 847.699 268 847.699 243.736H890.737Z" fill="white"/>
<path d="M913.786 220.69H957V177.477H913.786V220.69Z" fill="white"/>
<path d="M890.733 177.476H847.52V220.69H890.733V177.476Z" fill="white"/>
<path d="M781.267 220.69H824.48V177.477H781.267V220.69Z" fill="white"/>
<path d="M758.214 177.476H715V220.69H758.214V177.476Z" fill="white"/>
<path fill-rule="evenodd" clip-rule="evenodd" d="M781.264 155.868C781.264 107.34 820.604 68 869.132 68C917.66 68 957 107.34 957 155.868H913.963C913.963 131.604 893.396 111.934 869.132 111.934C844.868 111.934 824.301 131.604 824.301 155.868H781.264Z" fill="white"/>
<defs>
<linearGradient id="paint0_linear_402_17244" x1="765.5" y1="384" x2="86" y2="86.5" gradientUnits="userSpaceOnUse">
<stop stop-color="#FD8700"/>
<stop offset="1" stop-color="#FFED49"/>
</linearGradient>
</defs>
</svg>
