<svg width="300" height="300" viewBox="0 0 300 300" fill="none" xmlns="http://www.w3.org/2000/svg">
<path fill-rule="evenodd" clip-rule="evenodd" d="M201.393 191.144C201.393 237.023 164.816 274.215 119.696 274.215C74.5768 274.215 38 237.023 38 191.144H78.0146C78.0146 214.083 97.1366 232.679 119.696 232.679C142.256 232.679 161.378 214.083 161.378 191.144H201.393Z" fill="white"/>
<path d="M222.821 169.354H263V128.499H222.821V169.354Z" fill="white"/>
<path d="M201.393 128.499H161.215V169.354H201.393V128.499Z" fill="white"/>
<path d="M99.6066 169.354H139.785V128.499H99.6066V169.354Z" fill="white"/>
<path d="M78.1786 128.499H38V169.354H78.1786V128.499Z" fill="white"/>
<path fill-rule="evenodd" clip-rule="evenodd" d="M99.6064 108.072C99.6064 62.1925 136.183 25 181.303 25C226.422 25 262.999 62.1925 262.999 108.072H222.985C222.985 85.1322 203.863 66.5359 181.303 66.5359C158.743 66.5359 139.621 85.1322 139.621 108.072H99.6064Z" fill="white"/>
</svg>
