<svg width="124" height="25" viewBox="0 0 124 25" fill="none" xmlns="http://www.w3.org/2000/svg">
<path d="M41.2676 5.90478H35.2614V3.2381H50.1588V5.90478H44.1289V21.7143H41.2676V5.90478Z" fill="#F7F5EB"/>
<path d="M92.8335 3.2381H106.17V5.90478H95.6947V10.8572H105.414V13.4048H95.6947V19.0239H106.17V21.7143H92.8335V3.2381Z" fill="#F7F5EB"/>
<path d="M116.598 3.2381C118.001 3.2381 119.191 3.48414 120.168 3.9762C121.146 4.45239 121.871 5.11112 122.344 5.95239C122.833 6.79367 123.077 7.74605 123.077 8.80954C123.077 9.66669 122.904 10.4445 122.557 11.1429C122.226 11.8254 121.721 12.4048 121.043 12.881C121.753 13.2937 122.265 13.873 122.58 14.6191C122.911 15.3492 123.077 16.2858 123.077 17.4286V21.7143H119.979V14.3096H111.49V21.7143H108.629V3.2381H116.598ZM119.979 11.7857V5.90478H111.49V11.7857H119.979Z" fill="#F7F5EB"/>
<path fill-rule="evenodd" clip-rule="evenodd" d="M52.4982 19.4524C53.9012 21.2143 56.1161 22.0953 59.1429 22.0953C62.2012 22.0953 64.424 21.2143 65.8113 19.4524C67.1986 17.6905 67.8922 15.3651 67.8922 12.4762C67.8922 9.6032 67.1907 7.28573 65.7877 5.52382C64.4004 3.74604 62.1855 2.85715 59.1429 2.85715C56.1161 2.85715 53.9012 3.74604 52.4982 5.52382C51.1109 7.28573 50.4173 9.6032 50.4173 12.4762C50.4173 15.3492 51.1109 17.6746 52.4982 19.4524ZM64.7725 13.0953V11.9048C64.7725 9.9046 64.7725 8.9045 64.3859 8.14053C64.0458 7.46852 63.5032 6.92216 62.8358 6.57975C62.077 6.19049 61.0838 6.19049 59.0973 6.19049C57.1107 6.19049 56.1175 6.19049 55.3587 6.57975C54.6913 6.92216 54.1487 7.46852 53.8086 8.14053C53.422 8.9045 53.422 9.9046 53.422 11.9048V13.0953C53.422 15.0955 53.422 16.0956 53.8086 16.8595C54.1487 17.5315 54.6913 18.0779 55.3587 18.4203C56.1175 18.8096 57.1107 18.8096 59.0973 18.8096C61.0838 18.8096 62.077 18.8096 62.8358 18.4203C63.5032 18.0779 64.0458 17.5315 64.3859 16.8595C64.7725 16.0956 64.7725 15.0955 64.7725 13.0953Z" fill="#F7F5EB"/>
<path fill-rule="evenodd" clip-rule="evenodd" d="M70.7315 3.33334H73.5691V18.2551L79.0165 6.17209H81.6004L87.0478 18.2551V3.33334H89.8854V21.6667H85.4695L80.3084 10.2187L75.1473 21.6667H70.7315V3.33334Z" fill="#F7F5EB"/>
<path fill-rule="evenodd" clip-rule="evenodd" d="M23.6742 19.5425V13.4496C23.6727 12.8592 23.1969 12.381 22.6101 12.381C22.3167 12.381 22.051 12.4713 21.8585 12.6576C18.5138 16.3692 10.8813 19.0722 1.76926 19.487C0.431766 19.5479 -0.571818 20.7483 0.367843 21.7086C2.26568 23.648 6.53438 25 11.4962 25C18.2219 25 23.6742 22.6068 23.6742 19.5425Z" fill="#F7F5EB"/>
<path fill-rule="evenodd" clip-rule="evenodd" d="M20.5727 10.2698V5.78635C20.5716 5.35188 20.2198 5.00001 19.7862 5.00001C19.5693 5.00001 19.3729 5.0665 19.2306 5.20356C16.7584 7.93474 11.1169 9.92373 4.38181 10.229C3.39321 10.2738 2.65142 11.1571 3.34597 11.8637C4.74873 13.2909 7.90391 14.2857 11.5714 14.2857C16.5426 14.2857 20.5727 12.5247 20.5727 10.2698Z" fill="#F7F5EB"/>
<path fill-rule="evenodd" clip-rule="evenodd" d="M17.4986 3.3781V0.504064C17.4979 0.225554 17.2697 0 16.9884 0C16.8477 0 16.7203 0.0426185 16.6281 0.130481C15.0245 1.88123 11.3651 3.15623 6.99641 3.35192C6.35516 3.38065 5.874 3.94686 6.32452 4.39982C7.23442 5.31468 9.28102 5.95239 11.6599 5.95239C14.8845 5.95239 17.4986 4.82354 17.4986 3.3781Z" fill="#F7F5EB"/>
</svg>
