<svg width="57" height="24" viewBox="0 0 57 24" fill="none" xmlns="http://www.w3.org/2000/svg">
<path d="M8.77575 16.4999V15.3579L11.8056 12.3877C12.0954 12.0951 12.3368 11.8351 12.53 11.6079C12.7232 11.3806 12.8681 11.1604 12.9647 10.9473C13.0613 10.7343 13.1096 10.507 13.1096 10.2655C13.1096 9.98997 13.0471 9.75417 12.9221 9.55815C12.7971 9.35929 12.6252 9.20588 12.4064 9.09792C12.1877 8.98997 11.9391 8.93599 11.6607 8.93599C11.3738 8.93599 11.1224 8.99565 10.9064 9.11497C10.6905 9.23144 10.5229 9.39764 10.4036 9.61355C10.2871 9.82946 10.2289 10.0865 10.2289 10.3848H8.72461C8.72461 9.83088 8.85103 9.34934 9.10387 8.94025C9.35671 8.53116 9.70473 8.2144 10.1479 7.98997C10.594 7.76553 11.1053 7.65332 11.682 7.65332C12.2672 7.65332 12.7815 7.76269 13.2246 7.98144C13.6678 8.20019 14.0116 8.49991 14.2559 8.88059C14.503 9.26127 14.6266 9.69593 14.6266 10.1846C14.6266 10.5113 14.5641 10.8323 14.4391 11.1476C14.3141 11.463 14.094 11.8124 13.7786 12.1959C13.4661 12.5794 13.0272 13.0439 12.4618 13.5894L10.9576 15.1192V15.1789H14.7587V16.4999H8.77575ZM17.0762 16.5937C16.8177 16.5937 16.5961 16.5027 16.4115 16.3209C16.2268 16.1391 16.1359 15.9175 16.1387 15.6561C16.1359 15.4005 16.2268 15.1817 16.4115 14.9999C16.5961 14.8181 16.8177 14.7272 17.0762 14.7272C17.3262 14.7272 17.5436 14.8181 17.7282 14.9999C17.9157 15.1817 18.0109 15.4005 18.0137 15.6561C18.0109 15.8294 17.9654 15.9871 17.8774 16.1292C17.7921 16.2712 17.6785 16.3848 17.5365 16.4701C17.3972 16.5525 17.2438 16.5937 17.0762 16.5937ZM22.398 16.6192C21.8298 16.6192 21.3213 16.5127 20.8724 16.2996C20.4236 16.0837 20.067 15.7883 19.8028 15.4133C19.5415 15.0383 19.4022 14.6093 19.3852 14.1263H20.9193C20.9477 14.4843 21.1025 14.7769 21.3838 15.0042C21.665 15.2286 22.0031 15.3408 22.398 15.3408C22.7076 15.3408 22.9832 15.2698 23.2247 15.1277C23.4662 14.9857 23.6565 14.7883 23.7957 14.5354C23.9349 14.2826 24.0031 13.9942 24.0003 13.6704C24.0031 13.3408 23.9335 13.0482 23.7915 12.7925C23.6494 12.5368 23.4548 12.3365 23.2076 12.1917C22.9605 12.0439 22.6764 11.9701 22.3554 11.9701C22.094 11.9672 21.8369 12.0155 21.5841 12.115C21.3312 12.2144 21.1309 12.3451 20.9832 12.507L19.5557 12.2726L20.0116 7.77264H25.0741V9.09366H21.3199L21.0684 11.4076H21.1196C21.2815 11.2172 21.5102 11.0596 21.8057 10.9346C22.1011 10.8067 22.425 10.7428 22.7772 10.7428C23.3057 10.7428 23.7772 10.8678 24.192 11.1178C24.6068 11.365 24.9335 11.7059 25.1721 12.1405C25.4108 12.5752 25.5301 13.0723 25.5301 13.632C25.5301 14.2087 25.3966 14.7229 25.1295 15.1746C24.8653 15.6235 24.4974 15.9772 24.0258 16.2357C23.5571 16.4914 23.0145 16.6192 22.398 16.6192ZM28.1161 9.95446L29.4371 12.3706L30.7794 9.95446H32.4115L30.4385 13.2272L32.4456 16.4999H30.822L29.4371 14.1434L28.0649 16.4999H26.4286L28.4229 13.2272L26.4797 9.95446H28.1161Z" fill="white"/>
<path d="M53 12C53 7.58172 49.4183 4 45 4C40.5817 4 37 7.58172 37 12C37 16.4183 40.5817 20 45 20C49.4183 20 53 16.4183 53 12Z" fill="white"/>
<path d="M40.0771 8.92285H48.461L49.4939 10.2538H41.1101L40.0771 8.92285Z" fill="#0008FF"/>
<path d="M40.0771 11.585H48.461L49.4939 12.9159H41.1101L40.0771 11.585Z" fill="#0008FF"/>
<path d="M40.0771 14.2461H48.461L49.4939 15.577H41.1101L40.0771 14.2461Z" fill="#0008FF"/>
<path d="M41.1064 12.916V14.2469H42.2239L41.1064 12.916Z" fill="#0008FF"/>
<path d="M41.1064 10.2539V11.5848H42.2239L41.1064 10.2539Z" fill="#0008FF"/>
</svg>
